<svg width="31" height="30" viewBox="0 0 31 30" fill="none" xmlns="http://www.w3.org/2000/svg">
<path d="M29.6666 21.888V26.088C29.6682 26.4779 29.5883 26.8639 29.4321 27.2211C29.2759 27.5783 29.0468 27.899 28.7595 28.1626C28.4722 28.4262 28.133 28.6269 27.7637 28.7518C27.3943 28.8767 27.0029 28.9231 26.6146 28.888C22.3066 28.4199 18.1684 26.9478 14.5326 24.59C11.15 22.4405 8.2821 19.5727 6.13262 16.19C3.76659 12.5377 2.29416 8.37941 1.83462 4.05201C1.79964 3.66487 1.84565 3.27468 1.96973 2.90629C2.0938 2.5379 2.29322 2.19938 2.5553 1.91228C2.81737 1.62519 3.13635 1.39581 3.49193 1.23874C3.84751 1.08168 4.2319 1.00038 4.62062 1.00001H8.82062C9.50005 0.993327 10.1587 1.23392 10.6739 1.67696C11.189 2.12 11.5255 2.73524 11.6206 3.40801C11.7979 4.75211 12.1267 6.07183 12.6006 7.34201C12.789 7.84311 12.8298 8.38769 12.7181 8.91125C12.6064 9.4348 12.347 9.91537 11.9706 10.296L10.1926 12.074C12.1856 15.579 15.0877 18.481 18.5926 20.474L20.3706 18.696C20.7513 18.3196 21.2318 18.0602 21.7554 17.9485C22.2789 17.8369 22.8235 17.8777 23.3246 18.066C24.5948 18.54 25.9145 18.8687 27.2586 19.046C27.9387 19.142 28.5598 19.4845 29.0038 20.0085C29.4478 20.5325 29.6837 21.2014 29.6666 21.888Z" stroke="black" stroke-width="2" stroke-linecap="round" stroke-linejoin="round"/>
</svg>
